STARTFONT 2.1
FONT -FontForge-DejaVu Serif-Book-R-Normal--32-310-75-75-P-192-ISO10646-1
SIZE 31 75 75
FONTBOUNDINGBOX 22 23 1 0
COMMENT "Generated by fontforge, http://fontforge.sourceforge.net"
COMMENT "Copyright (c) 2003 by Bitstream, Inc. All Rights Reserved."
COMMENT "DejaVu changes are in public domain"
STARTPROPERTIES 36
FOUNDRY "FontForge"
FAMILY_NAME "DejaVu Serif"
WEIGHT_NAME "Book"
SLANT "R"
SETWIDTH_NAME "Normal"
ADD_STYLE_NAME ""
PIXEL_SIZE 32
POINT_SIZE 310
RESOLUTION_X 75
RESOLUTION_Y 75
SPACING "P"
AVERAGE_WIDTH 192
CHARSET_REGISTRY "ISO10646"
CHARSET_ENCODING "1"
FONTNAME_REGISTRY ""
CHARSET_COLLECTIONS "ISO10646-1"
FONT_NAME "DejaVuSerif"
FACE_NAME "DejaVu Serif"
COPYRIGHT "Copyright (c) 2003 by Bitstream, Inc. All Rights Reserved."
FONT_VERSION "2.37"
FONT_ASCENT 24
FONT_DESCENT 8
UNDERLINE_POSITION -3
UNDERLINE_THICKNESS 2
RAW_ASCENT 759
RAW_DESCENT 240
RELATIVE_WEIGHT 40
RELATIVE_SETWIDTH 50
SUPERSCRIPT_X 0
SUPERSCRIPT_Y 15
SUPERSCRIPT_SIZE 22
SUBSCRIPT_X 0
SUBSCRIPT_Y 4
SUBSCRIPT_SIZE 22
FIGURE_WIDTH 20
AVG_UPPERCASE_WIDTH 240
ENDPROPERTIES
CHARS 15
STARTCHAR plus
ENCODING 43
SWIDTH 837 0
DWIDTH 27 0
BBX 19 19 4 0
BITMAP
00E000
00E000
00E000
00E000
00E000
00E000
00E000
00E000
FFFFE0
FFFFE0
FFFFE0
00E000
00E000
00E000
00E000
00E000
00E000
00E000
00E000
ENDCHAR
STARTCHAR hyphen
ENCODING 45
SWIDTH 337 0
DWIDTH 11 0
BBX 8 2 1 8
BITMAP
FF
FF
ENDCHAR
STARTCHAR period
ENCODING 46
SWIDTH 317 0
DWIDTH 10 0
BBX 4 4 3 0
BITMAP
60
F0
F0
60
ENDCHAR
STARTCHAR zero
ENCODING 48
SWIDTH 636 0
DWIDTH 20 0
BBX 16 23 2 0
BITMAP
07E0
0FF0
1C38
381C
700E
700E
6006
E007
E007
E007
E007
E007
E007
E007
E007
E007
600E
700E
700E
381C
1C38
1FF0
07E0
ENDCHAR
STARTCHAR one
ENCODING 49
SWIDTH 636 0
DWIDTH 20 0
BBX 12 23 4 0
BITMAP
0700
0F00
3F00
7700
E700
8700
0700
0700
0700
0700
0700
0700
0700
0700
0700
0700
0700
0700
0700
0700
0700
7FF0
7FF0
ENDCHAR
STARTCHAR two
ENCODING 50
SWIDTH 636 0
DWIDTH 20 0
BBX 15 23 2 0
BITMAP
0FE0
7FF8
F03C
E01C
C00E
C00E
000E
000E
000C
001C
0018
0038
0070
00E0
01C0
0380
0600
0C06
1806
3006
7FFE
FFFE
FFFE
ENDCHAR
STARTCHAR three
ENCODING 51
SWIDTH 636 0
DWIDTH 20 0
BBX 16 23 2 0
BITMAP
07E0
3FF8
783C
701E
600E
600E
000E
001C
0038
03E0
03F0
003C
000E
000E
0007
0007
C007
C007
E00F
E00E
F83E
7FF8
0FE0
ENDCHAR
STARTCHAR four
ENCODING 52
SWIDTH 636 0
DWIDTH 20 0
BBX 17 23 1 0
BITMAP
003800
007800
00F800
00F800
01B800
03B800
073800
063800
0E3800
1C3800
183800
303800
703800
603800
FFFF80
FFFF80
003800
003800
003800
003800
003800
03FF80
03FF80
ENDCHAR
STARTCHAR five
ENCODING 53
SWIDTH 636 0
DWIDTH 20 0
BBX 15 23 3 0
BITMAP
7FF8
7FF8
7FF8
6000
6000
6000
6000
6FC0
7FF0
7878
601C
001C
000E
000E
000E
000E
C00E
C00E
E01C
E01C
F878
7FF0
1FC0
ENDCHAR
STARTCHAR six
ENCODING 54
SWIDTH 636 0
DWIDTH 20 0
BBX 16 23 2 0
BITMAP
03F8
0FFE
1C1E
380E
3006
7000
6000
E3E0
EFF8
FC3C
F00E
F00E
E007
E007
E007
E007
E007
6007
700E
300E
3C3C
1FF8
07E0
ENDCHAR
STARTCHAR seven
ENCODING 55
SWIDTH 636 0
DWIDTH 20 0
BBX 15 23 3 0
BITMAP
FFFE
FFFE
FFFE
C00C
C00C
C018
0018
0038
0030
0030
0060
0060
00E0
00C0
00C0
0180
0180
0380
0300
0700
0600
0600
0C00
ENDCHAR
STARTCHAR eight
ENCODING 56
SWIDTH 636 0
DWIDTH 20 0
BBX 16 23 2 0
BITMAP
07E0
1FF8
3C3C
781E
700E
700E
700E
781C
3C3C
0FF0
0FF0
3C3C
700E
E00F
E007
E007
E007
E007
E00F
700E
7C3E
3FFC
0FF0
ENDCHAR
STARTCHAR nine
ENCODING 57
SWIDTH 636 0
DWIDTH 20 0
BBX 16 23 2 0
BITMAP
07E0
1FF8
3C3C
700C
700E
E006
E007
E007
E007
E007
E007
700F
700F
3C3F
1FF7
07C6
0006
000E
600C
701C
7838
7FF0
1FC0
ENDCHAR
STARTCHAR C
ENCODING 67
SWIDTH 765 0
DWIDTH 24 0
BBX 21 23 2 0
BITMAP
00FE00
07FFE0
0F03F0
1C00F0
380070
700070
700030
600000
E00000
E00000
E00000
E00000
E00000
E00000
E00000
600000
700038
700070
380070
1C00E0
0F03C0
07FF80
00FE00
ENDCHAR
STARTCHAR degree
ENCODING 176
SWIDTH 500 0
DWIDTH 16 0
BBX 10 10 3 13
BITMAP
1E00
7F80
6180
C0C0
C0C0
C0C0
C0C0
6180
7F80
1E00
ENDCHAR
ENDFONT
