STARTFONT 2.1
FONT -FontForge-DejaVu Serif-Bold-R-Normal--60-580-75-75-P-441-ISO10646-1
SIZE 58 75 75
FONTBOUNDINGBOX 62 46 2 -1
COMMENT "Generated by fontforge, http://fontforge.sourceforge.net"
COMMENT "Copyright (c) 2003 by Bitstream, Inc. All Rights Reserved."
COMMENT "DejaVu changes are in public domain"
STARTPROPERTIES 36
FOUNDRY "FontForge"
FAMILY_NAME "DejaVu Serif"
WEIGHT_NAME "Bold"
SLANT "R"
SETWIDTH_NAME "Normal"
ADD_STYLE_NAME ""
PIXEL_SIZE 60
POINT_SIZE 580
RESOLUTION_X 75
RESOLUTION_Y 75
SPACING "P"
AVERAGE_WIDTH 441
CHARSET_REGISTRY "ISO10646"
CHARSET_ENCODING "1"
FONTNAME_REGISTRY ""
CHARSET_COLLECTIONS "ISO10646-1"
FONT_NAME "DejaVuSerif-Bold"
FACE_NAME "DejaVu Serif Bold"
COPYRIGHT "Copyright (c) 2003 by Bitstream, Inc. All Rights Reserved."
FONT_VERSION "2.37"
FONT_ASCENT 46
FONT_DESCENT 14
UNDERLINE_POSITION -5
UNDERLINE_THICKNESS 3
RAW_ASCENT 759
RAW_DESCENT 240
RELATIVE_WEIGHT 70
RELATIVE_SETWIDTH 50
SUPERSCRIPT_X 0
SUPERSCRIPT_Y 28
SUPERSCRIPT_SIZE 41
SUBSCRIPT_X 0
SUBSCRIPT_Y 8
SUBSCRIPT_SIZE 41
FIGURE_WIDTH 42
AVG_UPPERCASE_WIDTH 660
ENDPROPERTIES
CHARS 11
STARTCHAR zero
ENCODING 48
SWIDTH 695 0
DWIDTH 42 0
BBX 36 46 3 -1
BITMAP
0007FE0000
003FFFC000
00FFFFF000
01FF0FF800
03FC03FC00
07FC03FE00
0FF801FF00
0FF801FF00
1FF801FF80
3FF801FFC0
3FF000FFC0
3FF000FFC0
7FF000FFE0
7FF000FFE0
7FF000FFE0
7FF000FFE0
FFF000FFF0
FFF000FFF0
FFF000FFF0
FFF000FFF0
FFF000FFF0
FFF000FFF0
FFF000FFF0
FFF000FFF0
FFF000FFF0
FFF000FFF0
FFF000FFF0
FFF000FFF0
FFF000FFF0
FFF000FFF0
7FF000FFE0
7FF000FFE0
7FF000FFE0
7FF000FFE0
3FF000FFC0
3FF800FFC0
3FF801FFC0
1FF801FF80
0FF801FF00
0FF801FF00
07FC03FE00
03FC03FC00
01FF0FF800
00FFFFF000
003FFFC000
0007FE0000
ENDCHAR
STARTCHAR one
ENCODING 49
SWIDTH 695 0
DWIDTH 42 0
BBX 28 45 7 0
BITMAP
003FF000
00FFF000
01FFF000
07FFF000
1FFFF000
3FFFF000
FE7FF000
FC7FF000
F07FF000
C07FF000
807FF000
007FF000
007FF000
007FF000
007FF000
007FF000
007FF000
007FF000
007FF000
007FF000
007FF000
007FF000
007FF000
007FF000
007FF000
007FF000
007FF000
007FF000
007FF000
007FF000
007FF000
007FF000
007FF000
007FF000
007FF000
007FF000
007FF000
007FF000
007FF000
007FF000
007FF000
7FFFFFF0
7FFFFFF0
7FFFFFF0
7FFFFFF0
ENDCHAR
STARTCHAR two
ENCODING 50
SWIDTH 695 0
DWIDTH 42 0
BBX 32 45 4 0
BITMAP
01FFF000
3FFFFF00
FFFFFFC0
FF81FFE0
FE007FF8
FC003FF8
F8003FFC
F8001FFE
F8001FFE
F0000FFF
F0000FFF
00000FFF
00000FFF
00000FFF
00000FFF
00000FFF
00000FFF
00000FFE
00001FFE
00001FFC
00001FFC
00003FF8
00003FF0
00007FE0
0000FFC0
0000FF80
0001FE00
0003FC00
000FF000
001FE000
003F8000
007F0000
01FC000F
03F8000F
07E0000F
1FC0000F
3F00000F
FFFFFFFF
FFFFFFFF
FFFFFFFF
FFFFFFFF
FFFFFFFF
FFFFFFFF
FFFFFFFF
FFFFFFFF
ENDCHAR
STARTCHAR three
ENCODING 51
SWIDTH 695 0
DWIDTH 42 0
BBX 34 46 4 -1
BITMAP
00FFFC0000
1FFFFF8000
7FFFFFE000
7F80FFF000
7F007FF800
7E003FFC00
7C001FFE00
7C001FFE00
78000FFF00
78000FFF00
00000FFF00
00000FFF00
00000FFF00
00000FFF00
00000FFF00
00001FFE00
00001FFE00
00003FFC00
00007FF800
0001FFF000
003FFFE000
003FFF0000
003FFFC000
003FFFF000
0000FFFC00
00003FFE00
00001FFF00
00000FFF80
000007FF80
000007FF80
000003FFC0
000003FFC0
000003FFC0
000003FFC0
F00003FFC0
F00003FFC0
F00003FFC0
F80007FF80
F80007FF80
FC000FFF00
FC000FFF00
FF003FFE00
FFC0FFFC00
FFFFFFF000
3FFFFFC000
00FFFC0000
ENDCHAR
STARTCHAR four
ENCODING 52
SWIDTH 695 0
DWIDTH 42 0
BBX 37 45 2 0
BITMAP
00003FF800
00007FF800
00007FF800
0000FFF800
0001FFF800
0001FFF800
0003FFF800
0003FFF800
0007FFF800
000FBFF800
000F3FF800
001F3FF800
003E3FF800
003E3FF800
007C3FF800
00783FF800
00F83FF800
01F03FF800
01E03FF800
03E03FF800
03C03FF800
07C03FF800
0F803FF800
0F003FF800
1F003FF800
1E003FF800
3C003FF800
7C003FF800
78003FF800
FFFFFFFFF8
FFFFFFFFF8
FFFFFFFFF8
FFFFFFFFF8
00003FF800
00003FF800
00003FF800
00003FF800
00003FF800
00003FF800
00003FF800
00003FF800
001FFFFFF0
001FFFFFF0
001FFFFFF0
001FFFFFF0
ENDCHAR
STARTCHAR five
ENCODING 53
SWIDTH 695 0
DWIDTH 42 0
BBX 32 45 5 -1
BITMAP
3FFFFFF8
3FFFFFF8
3FFFFFF8
3FFFFFF8
3FFFFFF8
3FFFFFF8
3FFFFFF8
3FFFFFF8
3C000000
3C000000
3C000000
3C000000
3C000000
3C000000
3C000000
3C1FF000
3CFFFE00
3FFFFF80
3F81FFE0
3F007FF0
3C003FF8
3C003FFC
00001FFC
00001FFE
00001FFE
00000FFE
00000FFF
00000FFF
00000FFF
00000FFF
00000FFF
00000FFF
00000FFF
F0000FFF
F0000FFE
F0001FFE
F0001FFE
F8001FFC
F8003FFC
FC003FF8
FE007FF0
FF81FFE0
FFFFFF80
3FFFFE00
01FFF000
ENDCHAR
STARTCHAR six
ENCODING 54
SWIDTH 695 0
DWIDTH 42 0
BBX 35 46 4 -1
BITMAP
0001FFC000
000FFFFE00
003FFFFF80
00FFC0FF80
01FE003F80
03FC001F80
07F8000F80
0FF8000F80
0FF0000780
1FF0000000
3FF0000000
3FF0000000
3FE0000000
7FE0000000
7FE0000000
7FE0000000
7FE0FF8000
FFE7FFF000
FFFFFFF800
FFFE0FFE00
FFFC07FF00
FFF803FF00
FFF803FF80
FFF803FFC0
FFF001FFC0
FFF001FFC0
FFF001FFE0
FFF001FFE0
FFF001FFE0
FFF001FFE0
FFF001FFE0
7FF001FFE0
7FF001FFE0
7FF001FFE0
7FF001FFE0
3FF001FFC0
3FF001FFC0
1FF001FFC0
1FF803FF80
0FF803FF80
07F803FF00
03FC07FE00
01FE0FFC00
00FFFFF800
003FFFE000
0007FE0000
ENDCHAR
STARTCHAR seven
ENCODING 55
SWIDTH 695 0
DWIDTH 42 0
BBX 32 44 5 0
BITMAP
FFFFFFFF
FFFFFFFF
FFFFFFFF
FFFFFFFF
FFFFFFFF
FFFFFFFF
FFFFFFFF
FFFFFFFF
F000007F
F000007E
F00000FE
F00000FC
F00001FC
F00001F8
000003F8
000003F0
000007F0
000007E0
00000FE0
00000FC0
00001FC0
00001F80
00003F80
00003F00
00003F00
00007E00
00007E00
0000FC00
0000FC00
0001F800
0001F800
0003F000
0003F000
0007E000
0007E000
000FC000
000FC000
001F8000
001F8000
003F0000
003F0000
007E0000
007E0000
00FC0000
ENDCHAR
STARTCHAR eight
ENCODING 56
SWIDTH 695 0
DWIDTH 42 0
BBX 35 46 3 -1
BITMAP
000FFE0000
00FFFFE000
03FFFFF800
07FE0FFC00
1FFC07FF00
1FFC07FF00
3FF803FF80
3FF803FF80
7FF803FFC0
7FF803FFC0
7FF803FFC0
7FF803FFC0
7FF803FFC0
7FF803FFC0
7FF803FFC0
3FF803FF80
3FF803FF80
1FFC07FF00
0FFC07FE00
07FE0FF800
00FFFFE000
001FFF0000
01FFFFF000
07FE0FFC00
0FFC07FE00
1FF803FF00
3FF803FF80
7FF001FFC0
7FF001FFC0
FFF001FFC0
FFF001FFE0
FFF001FFE0
FFF001FFE0
FFF001FFE0
FFF001FFE0
FFF001FFE0
FFF001FFE0
7FF001FFC0
7FF001FFC0
3FF803FF80
3FF803FF80
1FFC07FF00
0FFE0FFE00
03FFFFF800
00FFFFE000
001FFE0000
ENDCHAR
STARTCHAR nine
ENCODING 57
SWIDTH 695 0
DWIDTH 42 0
BBX 35 46 3 -1
BITMAP
001FFC0000
00FFFF8000
03FFFFE000
07FE0FF000
0FFC07F800
1FF803FC00
3FF803FE00
3FF803FF00
7FF001FF00
7FF001FF80
FFF001FF80
FFF001FFC0
FFF001FFC0
FFF001FFC0
FFF001FFC0
FFF001FFE0
FFF001FFE0
FFF001FFE0
FFF001FFE0
FFF001FFE0
7FF001FFE0
7FF001FFE0
7FF803FFE0
3FF803FFE0
1FF803FFE0
1FFC07FFE0
0FFE0FFFE0
03FFFFFFE0
01FFFCFFC0
003FE0FFC0
000000FFC0
000000FFC0
000000FFC0
000000FF80
000001FF80
000001FF00
000001FF00
3C0003FE00
3C0003FE00
3E0007FC00
3F0007F800
3F800FF000
3FE03FE000
3FFFFF8000
0FFFFE0000
00FFF00000
ENDCHAR
STARTCHAR M
ENCODING 77
SWIDTH 1106 0
DWIDTH 66 0
BBX 62 44 2 0
BITMAP
FFFFE000000FFFFC
FFFFE000001FFFFC
FFFFF000001FFFFC
FFFFF000003FFFFC
03FFF800003FFF00
03FFF800007FFF00
03FFFC00007FFF00
03FFFC0000FFFF00
03DFFC0000F7FF00
03DFFE0000F7FF00
03DFFE0001F7FF00
03CFFF0001E7FF00
03CFFF0003E7FF00
03C7FF8003C7FF00
03C7FF8007C7FF00
03C3FF800787FF00
03C3FFC00F87FF00
03C1FFC00F07FF00
03C1FFE00F07FF00
03C0FFE01E07FF00
03C0FFF01E07FF00
03C0FFF03E07FF00
03C07FF03C07FF00
03C07FF87C07FF00
03C03FF87807FF00
03C03FFCF807FF00
03C01FFCF007FF00
03C01FFEF007FF00
03C00FFFE007FF00
03C00FFFE007FF00
03C00FFFE007FF00
03C007FFC007FF00
03C007FFC007FF00
03C003FF8007FF00
03C003FF8007FF00
03C001FF0007FF00
03C001FF0007FF00
03C000FE0007FF00
03C000000007FF00
03C000000007FF00
FFFF000001FFFFFC
FFFF000001FFFFFC
FFFF000001FFFFFC
FFFF000001FFFFFC
ENDCHAR
ENDFONT
