STARTFONT 2.1
FONT -FontForge-Weather Icons-Book-R-Normal--40-380-75-75-P-353-ISO10646-1
SIZE 38 75 75
FONTBOUNDINGBOX 62 57 -1 -13
COMMENT "Generated by fontforge, http://fontforge.sourceforge.net"
COMMENT "Weather Icons licensed under SIL OFL 1.1 - Code licensed under MIT License - Documentation licensed under CC BY 3.0"
STARTPROPERTIES 36
FOUNDRY "FontForge"
FAMILY_NAME "Weather Icons"
WEIGHT_NAME "Book"
SLANT "R"
SETWIDTH_NAME "Normal"
ADD_STYLE_NAME ""
PIXEL_SIZE 40
POINT_SIZE 380
RESOLUTION_X 75
RESOLUTION_Y 75
SPACING "P"
AVERAGE_WIDTH 353
CHARSET_REGISTRY "ISO10646"
CHARSET_ENCODING "1"
FONTNAME_REGISTRY ""
CHARSET_COLLECTIONS "Symbol ISO10646-1"
FONT_NAME "WeatherIcons-Regular"
FACE_NAME "Weather Icons Regular"
COPYRIGHT "Weather Icons licensed under SIL OFL 1.1 - Code licensed under MIT License - Documentation licensed under CC BY 3.0"
FONT_VERSION "1.100;PS 001.100;hotconv 1.0.70;makeotf.lib2.5.58329"
FONT_ASCENT 34
FONT_DESCENT 6
UNDERLINE_POSITION -2
UNDERLINE_THICKNESS 2
RAW_ASCENT 856
RAW_DESCENT 143
NORM_SPACE 13
RELATIVE_WEIGHT 40
RELATIVE_SETWIDTH 50
SUPERSCRIPT_X 0
SUPERSCRIPT_Y 14
SUPERSCRIPT_SIZE 24
SUBSCRIPT_X 0
SUBSCRIPT_Y 2
SUBSCRIPT_SIZE 24
FIGURE_WIDTH -1
ENDPROPERTIES
CHARS 8
STARTCHAR uniF059
ENCODING 61529
SWIDTH 748 0
DWIDTH 30 0
BBX 30 30 0 0
BITMAP
001FE000
00FFF800
01FFFE00
07F03F80
0F8007C0
1F0003E0
1E0001E0
3C0000F0
78000070
70000038
70300038
F03C003C
E03F001C
E01FE01C
E01FF81C
E01FFC1C
E01FE01C
E03F801C
E03C003C
70300038
70400038
78000078
3C0000F0
1E0001E0
1F0003E0
0F8007C0
07F03F80
01FFFE00
00FFFC00
001FE000
ENDCHAR
STARTCHAR uniF05A
ENCODING 61530
SWIDTH 748 0
DWIDTH 30 0
BBX 30 30 0 0
BITMAP
001FE000
00FFF800
01FFFE00
07F03F80
0F8007C0
1F0003E0
1E0001E0
3C0000F0
78000070
70000038
70001838
F000783C
E001F01C
E00FF01C
E03FE01C
E07FE01C
E01FE01C
E007C01C
E003C03C
70038038
70018038
78018078
3C0000F0
1E0001E0
1F0003E0
0F8007C0
07F03F80
01FFFE00
00FFFC00
001FE000
ENDCHAR
STARTCHAR uniF05B
ENCODING 61531
SWIDTH 748 0
DWIDTH 30 0
BBX 30 30 0 0
BITMAP
001FE000
00FFF800
01FFFE00
07F03F80
0F8007C0
1F0003E0
1E0001E0
3C0000F0
78000070
70000038
70300038
F03C003C
E01F001C
E01FE01C
E00FF81C
E00FFE1C
E007F01C
E007C01C
E007803C
70038038
70030038
78010078
3C0100F0
1E0001E0
1F0003E0
0F8007C0
07F03F80
01FFFE00
00FFFC00
001FE000
ENDCHAR
STARTCHAR uniF05C
ENCODING 61532
SWIDTH 750 0
DWIDTH 30 0
BBX 30 30 0 0
BITMAP
001FE000
00FFFC00
01FFFE00
07F03F80
0F8007C0
1F0003E0
1E0001E0
3C0000F0
78020078
70030038
70030038
E007803C
E007801C
E007801C
E00FC01C
E00FC01C
E01FE01C
E01FE01C
E03FF03C
70387038
70000038
78000078
3C0000F0
1E0001E0
1F0003E0
0F8007C0
07F03F80
01FFFE00
00FFFC00
001FE000
ENDCHAR
STARTCHAR uniF05D
ENCODING 61533
SWIDTH 750 0
DWIDTH 30 0
BBX 30 30 0 0
BITMAP
001FE000
00FFF800
01FFFE00
07F03F80
0F8007C0
1F0003E0
1E0001E0
3C0200F0
78020070
70070038
70070038
F007003C
E00F801C
E03F801C
E0FFC01C
E0FFC01C
E01FE01C
E007E01C
E000E03C
70003038
70000038
78000078
3C0000F0
1E0001E0
1F0003E0
0F8007C0
07F03F80
01FFFE00
00FFFC00
001FE000
ENDCHAR
STARTCHAR uniF05E
ENCODING 61534
SWIDTH 748 0
DWIDTH 30 0
BBX 30 30 0 0
BITMAP
001FE000
00FFF800
01FFFE00
07F03F80
0F8007C0
1F0003E0
1E0001E0
3C0100F0
78010070
70038038
70038038
F003803C
E007C01C
E007F01C
E00FFE1C
E00FFC1C
E01FE01C
E01F801C
E01C003C
70300038
70000038
78000078
3C0000F0
1E0001E0
1F0003E0
0F8007C0
07F03F80
01FFFE00
00FFFC00
001FE000
ENDCHAR
STARTCHAR uniF060
ENCODING 61536
SWIDTH 750 0
DWIDTH 30 0
BBX 30 30 0 0
BITMAP
001FE000
00FFFC00
01FFFE00
07F03F80
0F8007C0
1F0003E0
1E0001E0
3C0000F0
78000078
70000038
70387038
F03FF03C
E01FE01C
E01FE01C
E00FC01C
E00FC01C
E007801C
E007801C
E007803C
70030038
70030038
78020078
3C0000F0
1E0001E0
1F0003E0
0F8007C0
07F03F80
01FFFE00
00FFFC00
001FE000
ENDCHAR
STARTCHAR uniF061
ENCODING 61537
SWIDTH 752 0
DWIDTH 30 0
BBX 30 30 0 0
BITMAP
001FE000
00FFFC00
01FFFE00
07F03F80
0F8007C0
1F0003E0
1E0001E0
3C0000F0
78000078
70000038
70003038
E000F03C
E007F01C
E01FE01C
E07FE01C
E0FFE01C
E01FE01C
E003F01C
E000F03C
70003038
70000038
78000078
3C0000F0
1E0001E0
1F0003E0
0F8007C0
07F03F80
01FFFE00
00FFFC00
001FE000
ENDCHAR
ENDFONT
